<svg width="129" height="33" viewBox="0 0 129 33" fill="none" xmlns="http://www.w3.org/2000/svg">
<path d="M0.0914307 10.4896C0.0914307 9.63461 0.643326 9.17356 1.74712 9.1065L6.00052 9.13165C6.28599 9.13165 6.47629 9.25739 6.57145 9.50887C7.00916 10.7663 7.4992 11.8518 8.04158 12.7655C8.58397 13.6792 9.29287 14.7313 10.1683 15.9216C10.2444 16.0725 10.3681 16.1479 10.5394 16.1479C10.6726 16.1479 10.7773 16.0892 10.8534 15.9719L10.939 15.6953L10.9676 11.3447C10.9676 11.0429 10.8867 10.8417 10.7249 10.7411C10.5632 10.6405 10.2634 10.5651 9.82573 10.5148C9.48318 10.4645 9.3119 10.2801 9.3119 9.96153C9.3119 9.89447 9.32141 9.84417 9.34044 9.81064C9.74009 8.7209 10.8819 8.17603 12.766 8.17603L14.3646 8.15088C15.0878 8.15088 15.6872 8.31015 16.163 8.62869C16.6388 8.94723 16.8767 9.45019 16.8767 10.1376V15.8461C17.0099 15.93 17.1336 15.9719 17.2478 15.9719C17.5332 15.9719 17.7806 15.821 17.99 15.5192C20.0834 12.9374 21.2157 11.2105 21.387 10.3387C21.387 10.322 21.406 10.2801 21.4441 10.213C21.5773 9.96153 21.7962 9.74358 22.1007 9.55916C22.4051 9.37474 22.6716 9.24901 22.9 9.18194C22.9761 9.14841 23.0617 9.13165 23.1569 9.13165H27.5816L27.867 9.1568C28.2476 9.1568 28.5426 9.31607 28.752 9.63461C28.8281 9.7352 28.8804 9.84417 28.909 9.96153C28.9375 10.0789 28.9565 10.1962 28.966 10.3136C28.9756 10.431 28.9803 10.498 28.9803 10.5148V10.6908C28.8471 11.3782 28.5093 12.1117 27.9669 12.8913C27.4245 13.6708 26.7347 14.5133 25.8973 15.4186C25.06 16.324 24.5366 16.9191 24.3273 17.2041C24.156 17.4053 24.0704 17.5897 24.0704 17.7574C24.0704 17.8915 24.1465 18.0424 24.2987 18.2101L28.4665 22.8373C28.6949 23.1055 28.809 23.3989 28.809 23.7174C28.809 24.103 28.6378 24.4216 28.2952 24.6731C27.9527 24.9245 27.5435 25.0671 27.0677 25.1006L26.5824 25.1257H22.2434C22.2244 25.1257 22.1863 25.1299 22.1292 25.1383C22.0721 25.1467 22.034 25.1509 22.015 25.1509C21.5963 25.1509 21.2062 24.9916 20.8446 24.6731C20.7114 24.5389 19.8169 23.5498 18.1613 21.7056C18.0661 21.5883 17.9329 21.4793 17.7616 21.3787C17.6855 21.6469 17.5856 22.0325 17.4619 22.5355C17.3382 23.0385 17.2478 23.3989 17.1907 23.6169L17.105 24.0444C16.9147 24.6312 16.5151 24.9832 15.9061 25.1006L15.5065 25.1257H12.7089C11.1293 25.1257 9.55454 24.4887 7.98449 23.2145C6.41444 21.9403 5.0014 20.2931 3.74536 18.2729C2.48932 16.2527 1.31892 13.9014 0.234162 11.2189C0.139008 11.001 0.0914307 10.7579 0.0914307 10.4896ZM17.2478 17.003C16.8481 17.003 16.4865 16.9065 16.163 16.7137C15.8395 16.5209 15.6777 16.2569 15.6777 15.9216V10.1376C15.6777 9.80226 15.5826 9.56335 15.3923 9.42085C15.202 9.27834 14.8689 9.20709 14.3931 9.20709L12.766 9.25739C11.9477 9.25739 11.3292 9.38313 10.9105 9.63461C11.7479 9.98668 12.1665 10.5567 12.1665 11.3447V15.7707C12.1285 16.1898 11.9382 16.5377 11.5956 16.8143C11.253 17.091 10.8724 17.2293 10.4538 17.2293C9.88282 17.2293 9.44511 16.9862 9.14062 16.5C7.65621 14.5217 6.55242 12.644 5.82924 10.8669L5.57233 10.213L1.77566 10.1879C1.52826 10.1879 1.39029 10.2004 1.36174 10.2256C1.3332 10.2507 1.31892 10.322 1.31892 10.4393C1.31892 10.5902 1.33795 10.7495 1.37602 10.9172L1.97549 12.3254C3.57408 15.9635 5.31065 18.8304 7.18519 20.926C9.05974 23.0217 10.901 24.0695 12.7089 24.0695H15.5635C15.6777 24.0695 15.7634 24.0402 15.8205 23.9815C15.8776 23.9228 15.9251 23.8097 15.9632 23.642L16.0203 23.3905L16.5627 21.1775C16.7149 20.8757 16.8481 20.6745 16.9623 20.574C17.1717 20.3895 17.4191 20.2973 17.7045 20.2973C18.1613 20.2973 18.6275 20.5404 19.1033 21.0266L21.5297 23.7426C21.682 23.9605 21.8437 24.0695 22.015 24.0695H26.7252C27.2961 24.0695 27.5816 23.9438 27.5816 23.6923C27.5816 23.6085 27.553 23.5246 27.4959 23.4408L23.3567 18.889C23.0332 18.537 22.8714 18.1598 22.8714 17.7574C22.8714 17.355 23.0237 16.9694 23.3281 16.6006C23.5755 16.2653 24.0561 15.7078 24.7697 14.9282C25.4834 14.1487 26.1067 13.4194 26.6395 12.7404C27.1724 12.0614 27.5245 11.4453 27.6957 10.892L27.7814 10.5651C27.7623 10.5315 27.7528 10.4771 27.7528 10.4016C27.7528 10.3262 27.7433 10.2633 27.7243 10.213H23.2425C22.957 10.3136 22.7287 10.4645 22.5574 10.6657L22.3861 11.1435C21.9103 12.3003 20.6638 14.0858 18.6465 16.5C18.2469 16.8353 17.7806 17.003 17.2478 17.003Z" fill="#666666"/>
<path d="M68.4775 6.08984C70.3942 6.08984 71.959 6.1123 73.1719 6.15723C74.2051 6.20215 75.126 6.38184 75.9346 6.69629C76.7132 6.99577 77.387 7.43001 77.9561 7.99902C78.5251 8.56803 78.9593 9.24186 79.2588 10.0205C79.5732 10.8291 79.7529 11.75 79.7979 12.7832C79.8428 13.9961 79.8652 15.5609 79.8652 17.4775C79.8652 19.3942 79.8428 20.959 79.7979 22.1719C79.7529 23.2051 79.5732 24.126 79.2588 24.9346C78.9593 25.7132 78.5251 26.387 77.9561 26.9561C77.387 27.5251 76.7132 27.9593 75.9346 28.2588C75.126 28.5732 74.2051 28.7529 73.1719 28.7978C71.959 28.8428 70.3942 28.8652 68.4775 28.8652C66.5609 28.8652 64.9961 28.8428 63.7832 28.7978C62.75 28.7529 61.8291 28.5732 61.0205 28.2588C60.2419 27.9593 59.568 27.5251 58.999 26.9561C58.43 26.387 57.9958 25.7132 57.6963 24.9346C57.3818 24.126 57.2021 23.2051 57.1572 22.1719C57.1123 20.959 57.0898 19.3942 57.0898 17.4775C57.0898 15.5609 57.1123 13.9961 57.1572 12.7832C57.2021 11.75 57.3818 10.8291 57.6963 10.0205C57.9958 9.24186 58.43 8.56803 58.999 7.99902C59.568 7.43001 60.2419 6.99577 61.0205 6.69629C61.8291 6.38184 62.75 6.20215 63.7832 6.15723C64.9961 6.1123 66.5609 6.08984 68.4775 6.08984ZM68.4775 7.57227C66.486 7.57227 64.8613 7.59473 63.6035 7.63965C62.7949 7.6696 62.0462 7.81185 61.3574 8.06641C60.2793 8.51562 59.5156 9.2793 59.0664 10.3574C58.8118 11.0462 58.6696 11.7949 58.6396 12.6035C58.5947 13.8613 58.5723 15.486 58.5723 17.4775C58.5723 19.4691 58.5947 21.0937 58.6396 22.3516C58.6696 23.1602 58.8118 23.9089 59.0664 24.5977C59.5156 25.6758 60.2793 26.4395 61.3574 26.8887C62.0462 27.1432 62.7949 27.2855 63.6035 27.3154C64.8613 27.3603 66.486 27.3828 68.4775 27.3828C70.4691 27.3828 72.0938 27.3603 73.3516 27.3154C74.1602 27.2855 74.9089 27.1432 75.5977 26.8887C76.6758 26.4395 77.4395 25.6758 77.8887 24.5977C78.1432 23.9089 78.2855 23.1602 78.3154 22.3516C78.3604 21.0937 78.3828 19.4691 78.3828 17.4775C78.3828 15.486 78.3604 13.8613 78.3154 12.6035C78.2855 11.7949 78.1432 11.0462 77.8887 10.3574C77.4395 9.2793 76.6758 8.51562 75.5977 8.06641C74.9089 7.81185 74.1602 7.6696 73.3516 7.63965C72.0938 7.59473 70.4691 7.57227 68.4775 7.57227ZM68.4775 22.0371C69.7354 22.0371 70.8097 21.5916 71.7007 20.7007C72.5916 19.8097 73.0371 18.7354 73.0371 17.4775C73.0371 16.2197 72.5916 15.1453 71.7007 14.2544C70.8097 13.3634 69.7354 12.918 68.4775 12.918C67.2197 12.918 66.1453 13.3634 65.2544 14.2544C64.3634 15.1453 63.918 16.2197 63.918 17.4775C63.918 18.7354 64.3634 19.8097 65.2544 20.7007C66.1453 21.5916 67.2197 22.0371 68.4775 22.0371ZM68.4775 11.6377C70.0947 11.6377 71.4723 12.2067 72.6104 13.3447C73.7484 14.4827 74.3174 15.8604 74.3174 17.4775C74.3174 19.0947 73.7484 20.4723 72.6104 21.6104C71.4723 22.7484 70.0947 23.3174 68.4775 23.3174C66.8604 23.3174 65.4827 22.7484 64.3447 21.6104C63.2067 20.4723 62.6377 19.0947 62.6377 17.4775C62.6377 15.8604 63.2067 14.4827 64.3447 13.3447C65.4827 12.2067 66.8604 11.6377 68.4775 11.6377ZM75.9346 11.4131C75.9346 11.7874 75.7998 12.1056 75.5303 12.3677C75.2607 12.6297 74.9313 12.7607 74.542 12.7607C74.1676 12.7607 73.8494 12.6297 73.5874 12.3677C73.3254 12.1056 73.1943 11.7874 73.1943 11.4131C73.1943 11.0238 73.3254 10.6943 73.5874 10.4248C73.8494 10.1553 74.1676 10.0205 74.542 10.0205C74.9163 10.0205 75.242 10.159 75.519 10.436C75.7961 10.7131 75.9346 11.0387 75.9346 11.4131Z" fill="#666666"/>
<path d="M122 2.75H118.5C116.953 2.75 115.469 3.46024 114.375 4.72447C113.281 5.98871 112.667 7.70337 112.667 9.49127V13.536H109.167V18.929H112.667V29.7151H117.333V18.929H120.833L122 13.536H117.333V9.49127C117.333 9.13369 117.456 8.79076 117.675 8.53791C117.894 8.28506 118.191 8.14302 118.5 8.14302H122V2.75Z" stroke="#666666" stroke-width="1.1" stroke-linecap="round" stroke-linejoin="round"/>
</svg>
