<svg width="180" height="180" viewBox="0 0 180 180" fill="none" xmlns="http://www.w3.org/2000/svg">
<rect width="180" height="180" fill="#EEEEEE"/>
<path d="M42.9894 113.491C40.1538 109.379 38.7979 104.46 39.1358 99.51V79.3059C38.7781 74.3195 40.1134 69.3571 42.9343 65.19C45.485 61.9753 49.8433 60.3769 56.009 60.3949C62.1748 60.4128 66.3495 61.8226 68.5332 64.6243C71.1959 68.0961 72.4951 72.3888 72.1941 76.7198V81.461H60.7985V76.3157C60.7831 74.9619 60.6635 73.6111 60.4406 72.2749C60.3029 71.3076 59.849 70.4098 59.1469 69.7157C58.7135 69.3519 58.2103 69.0764 57.6668 68.9053C57.1233 68.7341 56.5503 68.6708 55.9815 68.719C55.1645 68.5997 54.3299 68.7296 53.5911 69.0911C52.8523 69.4526 52.2453 70.0282 51.8526 70.7394C51.1289 72.6312 50.8103 74.6485 50.9168 76.6659V102.312C50.7912 104.342 51.1591 106.373 51.9903 108.238C52.3874 108.911 52.9767 109.455 53.6858 109.805C54.3949 110.154 55.1928 110.293 55.9815 110.205C56.7565 110.312 57.5463 110.177 58.2383 109.819C58.9303 109.461 59.4891 108.898 59.8351 108.211C60.5009 106.316 60.7905 104.313 60.6884 102.312V96.9239H72.084V101.584C72.4195 105.979 71.2262 110.356 68.6983 114.003C66.2761 116.966 62.0922 118.421 56.1466 118.421C50.2011 118.421 45.5493 116.805 42.9894 113.491Z" fill="#111111"/>
<path d="M87.0011 61.5789H100.188L111.316 117.237H100.355L98.3795 104.939H89.1432L86.9176 117.157H75.7896L87.0011 61.5789ZM97.1554 97.9421L93.6501 75.5729L90.1726 97.9421H97.1554Z" fill="#111111"/>
<path d="M119.079 69.9661H110.132V61.5789H139.737V69.9661H130.899V117.237H119.052L119.079 69.9661Z" fill="#111111"/>
</svg>
