<svg width="520" height="597" viewBox="0 0 520 597" fill="none" xmlns="http://www.w3.org/2000/svg">
<path d="M53.3722 267V79.4C53.1855 79.5867 51.0389 80.1467 46.9322 81.08C43.0122 82.0133 38.5322 82.9467 33.4922 83.88C28.4522 84.8133 23.9722 85.6533 20.0522 86.4C16.1322 87.1467 14.0789 87.52 13.8922 87.52V64.84C17.0655 64.0933 20.7055 63.0667 24.8122 61.76C29.1055 60.4533 33.3989 58.8667 37.6922 57C42.1722 55.1333 46.3722 52.8 50.2922 50C54.3989 47.2 57.8522 43.9333 60.6522 40.2H83.3322V267H53.3722Z" fill="#F2F2F2"/>
<path d="M393.625 267V245.72L451.305 155.84C455.598 149.12 459.518 142.867 463.065 137.08C466.798 131.293 469.785 125.227 472.025 118.88C474.451 112.347 475.665 104.88 475.665 96.48C475.665 86.0267 473.985 77.8133 470.625 71.84C467.265 65.8667 461.385 62.88 452.985 62.88C445.891 62.88 440.385 64.84 436.465 68.76C432.545 72.68 429.838 77.8133 428.345 84.16C426.851 90.5067 426.105 97.32 426.105 104.6V112.16H396.145V104.32C396.145 90.6933 397.918 79.0267 401.465 69.32C405.198 59.4267 411.078 51.7733 419.105 46.36C427.318 40.9467 438.145 38.24 451.585 38.24C469.878 38.24 483.505 43.4667 492.465 53.92C501.425 64.1867 505.905 78.4667 505.905 96.76C505.905 106.467 504.691 114.96 502.265 122.24C500.025 129.52 497.038 136.333 493.305 142.68C489.571 149.027 485.465 155.56 480.985 162.28L428.905 241.8H500.585V267H393.625Z" fill="#F2F2F2"/>
<path d="M66.9213 586.52C54.6013 586.52 44.3346 584.187 36.1213 579.52C27.9079 574.853 21.7479 568.133 17.6413 559.36C13.5346 550.587 11.4813 540.227 11.4813 528.28V520.72H41.1613C41.1613 521.467 41.1613 522.307 41.1613 523.24C41.1613 523.987 41.1613 524.827 41.1613 525.76C41.3479 532.48 42.0946 538.547 43.4013 543.96C44.8946 549.373 47.4146 553.667 50.9613 556.84C54.6946 560.013 60.0146 561.6 66.9213 561.6C74.2013 561.6 79.7079 559.92 83.4413 556.56C87.1746 553.013 89.6946 548.067 91.0013 541.72C92.3079 535.373 92.9613 528.093 92.9613 519.88C92.9613 507.933 90.7213 498.227 86.2413 490.76C81.9479 483.107 74.2946 478.907 63.2813 478.16C62.7213 477.973 61.9746 477.88 61.0413 477.88C60.2946 477.88 59.6413 477.88 59.0813 477.88V447.92C59.6413 447.92 60.2946 447.92 61.0413 447.92C61.7879 447.92 62.4413 447.92 63.0013 447.92C73.6413 447.547 81.2946 444.747 85.9613 439.52C90.6279 434.293 92.9613 425.613 92.9613 413.48C92.9613 403.213 91.1879 395 87.6413 388.84C84.2813 382.68 77.4679 379.6 67.2013 379.6C56.9346 379.6 50.1213 383.053 46.7613 389.96C43.4013 396.68 41.5346 405.36 41.1613 416C41.1613 416.747 41.1613 417.587 41.1613 418.52C41.1613 419.267 41.1613 420.013 41.1613 420.76H11.4813V413.2C11.4813 401.067 13.5346 390.707 17.6413 382.12C21.7479 373.533 27.9079 366.907 36.1213 362.24C44.5213 357.573 54.8813 355.24 67.2013 355.24C79.7079 355.24 90.0679 357.573 98.2813 362.24C106.495 366.907 112.655 373.627 116.761 382.4C120.868 390.987 122.921 401.347 122.921 413.48C122.921 427.107 119.935 438.027 113.961 446.24C108.175 454.453 100.335 460.053 90.4413 463.04C97.3479 465.093 103.135 468.64 107.801 473.68C112.655 478.72 116.388 485.16 119.001 493C121.615 500.653 122.921 509.613 122.921 519.88C122.921 533.32 121.055 545.08 117.321 555.16C113.588 565.053 107.615 572.8 99.4013 578.4C91.1879 583.813 80.3613 586.52 66.9213 586.52Z" fill="#F2F2F2"/>
<path d="M461.324 584V523.24H395.524V491.88L454.604 357.2H489.884V496.64H515.364V523.24H489.884V584H461.324ZM424.364 496.64H461.324V393.6L424.364 496.64Z" fill="#F2F2F2"/>
</svg>
